<svg viewBox="0 0 53 64" fill="none" xmlns="http://www.w3.org/2000/svg">
<path d="M44.1183 34.0351C44.1499 31.582 44.8015 29.1767 46.0125 27.0431C47.2234 24.9096 48.9544 23.1169 51.0443 21.8321C49.7166 19.9359 47.9651 18.3755 45.9289 17.2747C43.8927 16.1739 41.6278 15.563 39.3142 15.4906C34.3789 14.9726 29.5943 18.4438 27.0794 18.4438C24.5157 18.4438 20.6436 15.542 16.4739 15.6278C13.7768 15.715 11.1483 16.4993 8.8445 17.9043C6.54067 19.3093 4.64007 21.2871 3.3279 23.6451C-2.35617 33.4862 1.88363 47.9492 7.32849 55.904C10.0527 59.7992 13.2365 64.1503 17.4024 63.996C21.479 63.8269 23.0015 61.3965 27.9223 61.3965C32.7974 61.3965 34.2259 63.996 38.4763 63.8979C42.8507 63.8269 45.6068 59.9854 48.2354 56.0533C50.1927 53.2778 51.6988 50.2102 52.698 46.9643C50.1566 45.8894 47.9879 44.0902 46.4622 41.791C44.9364 39.4919 44.1213 36.7944 44.1183 34.0351Z" fill="white"/>
<path d="M36.09 10.259C38.4751 7.39578 39.6502 3.7156 39.3656 -7.39098e-06C35.7217 0.382713 32.3558 2.12426 29.9385 4.87762C28.7566 6.22271 27.8514 7.78755 27.2746 9.48269C26.6978 11.1778 26.4608 12.97 26.5771 14.7568C28.3997 14.7756 30.2028 14.3805 31.8506 13.6014C33.4984 12.8223 34.9479 11.6795 36.09 10.259Z" fill="white"/>
</svg>
