<svg viewBox="0 0 59 64" fill="none" xmlns="http://www.w3.org/2000/svg">
<path d="M27.662 30.5645L1.16882 58.6825C1.17131 58.6874 1.17131 58.6949 1.1738 58.6999C1.98748 61.753 4.7744 64 8.08386 64C9.40765 64 10.6493 63.6417 11.7143 63.0146L11.7989 62.9649L41.6189 45.7581L27.662 30.5645Z" fill="#EA4335"/>
<path d="M54.4634 25.7765L54.4385 25.7591L41.564 18.2966L27.0596 31.2035L41.6162 45.7552L54.4211 38.3674C56.6656 37.1531 58.1909 34.7867 58.1909 32.0595C58.1909 29.3472 56.688 26.9933 54.4634 25.7765Z" fill="#FBBC04"/>
<path d="M1.16835 5.31549C1.0091 5.90273 0.9245 6.51983 0.9245 7.15685V56.8436C0.9245 57.4806 1.0091 58.0977 1.17084 58.6825L28.5722 31.2836L1.16835 5.31549Z" fill="#4285F4"/>
<path d="M27.8576 31.9998L41.5683 18.2916L11.7831 1.02271C10.7007 0.373262 9.43662 1.71661e-05 8.08546 1.71661e-05C4.776 1.71661e-05 1.98411 2.25194 1.17043 5.3076C1.17043 5.31009 1.16794 5.31258 1.16794 5.31507L27.8576 31.9998Z" fill="#34A853"/>
</svg>
